<?xml version="1.0" encoding="utf-8"?>
<!-- Generator: Adobe Illustrator 19.1.0, SVG Export Plug-In . SVG Version: 6.00 Build 0)  -->
<svg version="1.1" id="Layer_1" xmlns="http://www.w3.org/2000/svg" xmlns:xlink="http://www.w3.org/1999/xlink" x="0px" y="0px"
	 viewBox="0 0 278.1 116.6" style="enable-background:new 0 0 278.1 116.6;" xml:space="preserve">
<style type="text/css">
	.st0{fill:#002D5A;}
	.st1{fill:#CFD2D5;}
	.st2{fill:none;stroke:#CFD2D5;stroke-width:0.25;stroke-miterlimit:10;}
	.st3{fill:#B4EB00;}
	.st4{fill:#00B4E5;}
	.st5{fill:#00DA9C;}
</style>
<g>
	<path class="st0" d="M256.7,107.9c0.3-0.4,0.5-1.1-0.2-1.7l-1.9-1.7c-1-0.9-0.7-2.1,0-2.8l0.7-0.8l0.8,0.8l-0.4,0.5
		c-0.4,0.5-0.2,0.8,0.3,1.2l1.8,1.6c1,0.9,0.6,1.8,0.2,2.3l0,0c0.4-0.4,1.3-1,2.4,0l1.7,1.6c0.5,0.4,0.8,0.6,1.2,0.2l0.4-0.5
		l0.8,0.8l-0.7,0.8c-0.7,0.8-1.9,1.1-2.8,0.3l-1.8-1.6c-0.8-0.7-1.5-0.5-1.8-0.1L256.7,107.9z"/>
	<polygon class="st1" points="0.6,20.2 7.1,36.4 17.9,22.7 	"/>
	<polygon class="st2" points="167,6.9 176.3,9.3 173.7,0 	"/>
	<polygon class="st3" points="276.1,51.4 268.8,57.9 278.1,60.9 	"/>
	<polygon class="st4" points="108.2,105.1 103.2,109.5 109.6,111.6 	"/>
	<polygon class="st5" points="260,37.3 251.8,41.2 259.3,46.4 	"/>
</g>
</svg>
